<?xml version="1.0" encoding="utf-8"?>
<!-- Generator: Adobe Illustrator 17.0.0, SVG Export Plug-In . SVG Version: 6.00 Build 0)  -->
<!DOCTYPE svg PUBLIC "-//W3C//DTD SVG 1.1//EN" "http://www.w3.org/Graphics/SVG/1.1/DTD/svg11.dtd" [
	<!ENTITY ns_flows "http://ns.adobe.com/Flows/1.0/">
	<!ENTITY ns_extend "http://ns.adobe.com/Extensibility/1.0/">
	<!ENTITY ns_ai "http://ns.adobe.com/AdobeIllustrator/10.0/">
	<!ENTITY ns_graphs "http://ns.adobe.com/Graphs/1.0/">
]>
<svg version="1.1" id="Layer_1" xmlns:x="&ns_extend;" xmlns:i="&ns_ai;" xmlns:graph="&ns_graphs;"
	 xmlns="http://www.w3.org/2000/svg" xmlns:xlink="http://www.w3.org/1999/xlink" xmlns:a="http://ns.adobe.com/AdobeSVGViewerExtensions/3.0/"
	 x="0px" y="0px" width="242.956px" height="250.001px" viewBox="154.522 175.999 242.956 250.001"
	 enable-background="new 154.522 175.999 242.956 250.001" xml:space="preserve">
<path fill="#023300" d="M396.671,329.008c1.077-1.861,1.077-4.154,0-6.016c-2.589-4.47-6.671-8.072-10.671-10.538V283.64
	c5-4.266,8.989-10.369,10.212-17.245c0.377-2.117-0.408-4.273-2.057-5.652c-2.45-2.05-5.155-3.646-8.155-4.771v-9.955
	c0-0.006,0-0.011,0-0.017c0-18.258-12.237-33.647-28.953-38.443c1.241-5.443,3.981-10.442,8.025-14.486
	c3.905-3.905,3.905-10.237,0-14.143c-3.905-3.905-10.237-3.905-14.143,0c-7.46,7.461-12.259,16.867-13.952,27.071H215.022
	c-1.692-10.204-6.491-19.61-13.952-27.071c-3.904-3.905-10.236-3.905-14.142-0.001c-3.905,3.905-3.906,10.237-0.001,14.142
	c4.045,4.045,6.784,9.044,8.025,14.487C178.237,212.353,166,227.742,166,246v9.818c-2.939,1.125-5.704,2.721-8.153,4.77
	c-1.648,1.379-2.434,3.535-2.059,5.652c1.223,6.876,4.924,12.979,10.212,17.245V312.3c-4.361,2.467-8.081,6.069-10.669,10.54
	c-1.078,1.859-1.078,4.152,0,6.012c2.588,4.471,6.308,8.073,10.669,10.54v28.816c-5.287,4.266-8.988,10.368-10.212,17.245
	c-0.375,2.117,0.41,4.273,2.059,5.652c2.823,2.363,6.065,4.118,9.513,5.243C171.92,413.422,187.488,426,206,426h140
	c18.45,0,33.974-12.496,38.593-29.483c3.465-1.124,6.725-2.884,9.562-5.258c1.648-1.379,2.434-3.535,2.057-5.652
	c-1.223-6.878-5.212-12.98-10.212-17.246v-28.815C390,337.08,394.082,333.478,396.671,329.008z"/>
<circle fill="#FFFFFF" cx="206" cy="246" r="20"/>
<circle fill="#FFFFFF" cx="346" cy="246" r="20"/>
<path fill="#BCCF00" d="M346,286H206c-11.046,0-20,8.954-20,20v80c0,11.046,8.954,20,20,20h40.001
	c0.834-0.015,1.656-0.096,2.468-0.197c2.315-0.287,4.819-1.162,6.897-2.201c2.934-1.468,5.658-4.035,7.36-6.822
	c2.709-4.436,3.999-9.649,5.021-14.694c0.863-4.263,1.555-8.086,2.356-13.086H270.1c0.527-2,3.008-4.904,5.898-4.904
	c2.891,0,5.371,2.904,5.898,4.904h-0.004c0.802,5,1.493,8.823,2.357,13.086c1.022,5.045,2.311,10.353,5.021,14.789
	c1.702,2.787,4.425,5.307,7.36,6.775c2.078,1.04,4.582,1.89,6.897,2.177c0.812,0.101,1.634,0.158,2.468,0.173H346
	c11.046,0,20-8.954,20-20v-80C366,294.954,357.046,286,346,286z"/>
<circle fill="#023300" cx="217.401" cy="333.333" r="11.4"/>
<circle fill="#023300" cx="231" cy="371" r="15"/>
<circle fill="#023300" cx="248.167" cy="313.834" r="7.833"/>
<circle fill="#023300" cx="303.833" cy="313.833" r="7.833"/>
<circle fill="#023300" cx="321" cy="371" r="15"/>
<circle fill="#023300" cx="334.6" cy="333.333" r="11.4"/>
</svg>
